<svg xmlns="http://www.w3.org/2000/svg" width="20" height="20" viewBox="0 0 20 20" fill="none">
  <path fill-rule="evenodd" clip-rule="evenodd" d="M10 17C13.866 17 17 13.866 17 10C17 6.13401 13.866 3 10 3C6.13401 3 3 6.13401 3 10C3 13.866 6.13401 17 10 17ZM8.86872 7.63128C8.52701 7.28957 7.97299 7.28957 7.63128 7.63128C7.28957 7.97299 7.28957 8.52701 7.63128 8.86872L8.76256 10L7.63128 11.1313C7.28957 11.473 7.28957 12.027 7.63128 12.3687C7.97299 12.7104 8.52701 12.7104 8.86872 12.3687L10 11.2374L11.1313 12.3687C11.473 12.7104 12.027 12.7104 12.3687 12.3687C12.7104 12.027 12.7104 11.473 12.3687 11.1313L11.2374 10L12.3687 8.86872C12.7104 8.52701 12.7104 7.97299 12.3687 7.63128C12.027 7.28957 11.473 7.28957 11.1313 7.63128L10 8.76256L8.86872 7.63128Z" fill="#151C24"/>
</svg>