<svg width="28" height="25" viewBox="0 0 28 25" fill="none" xmlns="http://www.w3.org/2000/svg">
<path d="M25.7868 2.14654C25.1058 1.46521 24.2972 0.924732 23.4073 0.555983C22.5173 0.187233 21.5635 -0.00256348 20.6002 -0.00256348C19.6368 -0.00256348 18.683 0.187233 17.793 0.555983C16.9031 0.924732 16.0945 1.46521 15.4135 2.14654L14.0001 3.55987L12.5868 2.14654C11.2112 0.770948 9.34553 -0.00185046 7.40015 -0.00185045C5.45477 -0.00185043 3.58907 0.770948 2.21348 2.14654C0.837892 3.52213 0.065094 5.38783 0.065094 7.3332C0.065094 9.27858 0.837892 11.1443 2.21348 12.5199L14.0001 24.3065L25.7868 12.5199C26.4681 11.8389 27.0086 11.0303 27.3774 10.1403C27.7461 9.2504 27.9359 8.29652 27.9359 7.3332C27.9359 6.36989 27.7461 5.41601 27.3774 4.52606C27.0086 3.63612 26.4681 2.82755 25.7868 2.14654Z" fill="#F43F5E"/>
</svg>
