<svg width="53" height="20" viewBox="0 0 53 20" fill="none" xmlns="http://www.w3.org/2000/svg">
<path d="M0.5 4C0.5 2.067 2.067 0.5 4 0.5H49C50.933 0.5 52.5 2.067 52.5 4V16C52.5 17.933 50.933 19.5 49 19.5H4C2.067 19.5 0.5 17.933 0.5 16V4Z" fill="#E4E7EC"/>
<path d="M0.5 4C0.5 2.067 2.067 0.5 4 0.5H49C50.933 0.5 52.5 2.067 52.5 4V16C52.5 17.933 50.933 19.5 49 19.5H4C2.067 19.5 0.5 17.933 0.5 16V4Z" stroke="#CED2DA"/>
<g clip-path="url(#clip0_1170_20831)">
<path d="M10.7 6.11596L10.074 6.66851C10.0854 6.6815 10.0973 6.69414 10.1096 6.7064L10.7 6.11596ZM13.884 10.7L13.3315 10.074C13.3185 10.0854 13.3058 10.0973 13.2936 10.1096L13.884 10.7ZM13.9667 9.38263L14.5927 8.83008C14.5812 8.81709 14.5693 8.80445 14.5571 8.79219L13.9667 9.38263ZM9.38263 13.9667L8.79219 14.5571C8.80445 14.5693 8.81709 14.5812 8.83008 14.5927L9.38263 13.9667ZM10.6173 13.9667L11.1699 14.5927C11.1829 14.5812 11.1955 14.5693 11.2078 14.5571L10.6173 13.9667ZM6.11596 10.7L6.7064 10.1096L6.68801 10.0912L6.66851 10.074L6.11596 10.7ZM7.66665 6.83165C7.2055 6.83165 6.83165 7.2055 6.83165 7.66665C6.83165 8.12781 7.2055 8.50165 7.66665 8.50165V6.83165ZM7.67132 8.50165C8.13248 8.50165 8.50632 8.12781 8.50632 7.66665C8.50632 7.2055 8.13248 6.83165 7.67132 6.83165V8.50165ZM6.63499 7.66665C6.63499 7.09688 7.09688 6.63499 7.66665 6.63499V4.96499C6.17457 4.96499 4.96499 6.17457 4.96499 7.66665H6.63499ZM6.63499 9.99999V7.66665H4.96499V9.99999H6.63499ZM7.66665 6.63499H9.99999V4.96499H7.66665V6.63499ZM9.99999 6.63499C10.0292 6.63499 10.0547 6.64671 10.074 6.66851L11.326 5.56341C11.0032 5.19768 10.5283 4.96499 9.99999 4.96499V6.63499ZM13.365 9.99999C13.365 10.0292 13.3533 10.0547 13.3315 10.074L14.4366 11.326C14.8023 11.0032 15.035 10.5283 15.035 9.99999H13.365ZM13.3406 9.93518C13.3564 9.95302 13.365 9.97448 13.365 9.99999H15.035C15.035 9.55209 14.8674 9.1413 14.5927 8.83008L13.3406 9.93518ZM9.99999 13.365C9.97448 13.365 9.95302 13.3564 9.93518 13.3406L8.83008 14.5927C9.1413 14.8674 9.55209 15.035 9.99999 15.035V13.365ZM10.0648 13.3406C10.047 13.3564 10.0255 13.365 9.99999 13.365V15.035C10.4479 15.035 10.8587 14.8674 11.1699 14.5927L10.0648 13.3406ZM6.66851 10.074C6.64671 10.0547 6.63499 10.0292 6.63499 9.99999H4.96499C4.96499 10.5283 5.19768 11.0032 5.56341 11.326L6.66851 10.074ZM10.1096 6.7064L13.3762 9.97306L14.5571 8.79219L11.2904 5.52553L10.1096 6.7064ZM9.97306 13.3762L6.7064 10.1096L5.52553 11.2904L8.79219 14.5571L9.97306 13.3762ZM13.2936 10.1096L10.0269 13.3762L11.2078 14.5571L14.4744 11.2904L13.2936 10.1096ZM7.66665 8.50165H7.67132V6.83165H7.66665V8.50165Z" fill="#637083"/>
</g>
<path d="M24.6697 8.72656C24.6366 8.41643 24.4969 8.17495 24.2507 8.00213C24.0069 7.82931 23.6896 7.7429 23.299 7.7429C23.0244 7.7429 22.7888 7.78433 22.5923 7.86719C22.3958 7.95005 22.2455 8.0625 22.1413 8.20455C22.0372 8.34659 21.9839 8.50876 21.9815 8.69105C21.9815 8.84257 22.0159 8.97396 22.0845 9.08523C22.1555 9.1965 22.2514 9.29119 22.3722 9.36932C22.4929 9.44508 22.6267 9.509 22.7734 9.56108C22.9202 9.61316 23.0682 9.65696 23.2173 9.69247L23.8991 9.86293C24.1738 9.92685 24.4377 10.0133 24.6911 10.1222C24.9467 10.2311 25.1752 10.3684 25.3764 10.5341C25.58 10.6998 25.741 10.8999 25.8594 11.1342C25.9777 11.3686 26.0369 11.6432 26.0369 11.9581C26.0369 12.3842 25.928 12.7595 25.7102 13.0838C25.4924 13.4058 25.1776 13.6579 24.7656 13.8402C24.3561 14.0201 23.8601 14.1101 23.2777 14.1101C22.7119 14.1101 22.2206 14.0225 21.804 13.8473C21.3897 13.6721 21.0653 13.4164 20.831 13.0803C20.599 12.7441 20.4735 12.3345 20.4545 11.8516H21.7507C21.7696 12.1049 21.8478 12.3156 21.9851 12.4837C22.1224 12.6518 22.3011 12.7772 22.5213 12.8601C22.7438 12.9429 22.9924 12.9844 23.267 12.9844C23.5535 12.9844 23.8045 12.9418 24.0199 12.8565C24.2377 12.7689 24.4081 12.6482 24.5312 12.4943C24.6544 12.3381 24.7171 12.1558 24.7195 11.9474C24.7171 11.758 24.6615 11.6018 24.5526 11.4787C24.4437 11.3532 24.291 11.2491 24.0945 11.1662C23.9003 11.081 23.6731 11.0052 23.4126 10.9389L22.5852 10.7259C21.9863 10.572 21.5128 10.3388 21.1648 10.0263C20.8191 9.71141 20.6463 9.29356 20.6463 8.77273C20.6463 8.34422 20.7623 7.96899 20.9943 7.64702C21.2287 7.32505 21.5471 7.07528 21.9496 6.89773C22.352 6.7178 22.8078 6.62784 23.3168 6.62784C23.8329 6.62784 24.285 6.7178 24.6733 6.89773C25.0639 7.07528 25.3705 7.32268 25.593 7.63991C25.8156 7.95478 25.9304 8.317 25.9375 8.72656H24.6697ZM29.0282 14H27.622L30.1824 6.72727H31.8088L34.3727 14H32.9664L31.024 8.21875H30.9672L29.0282 14ZM29.0744 11.1484H32.9096V12.2067H29.0744V11.1484ZM36.3306 14V6.72727H37.6481V12.8956H40.8512V14H36.3306ZM42.9947 14V6.72727H47.7248V7.83168H44.3121V9.80611H47.4798V10.9105H44.3121V12.8956H47.7532V14H42.9947Z" fill="#637083"/>
<defs>
<clipPath id="clip0_1170_20831">
<rect width="12" height="12" fill="white" transform="translate(4 4)"/>
</clipPath>
</defs>
</svg>
